<?xml version="1.0" encoding="utf-8"?>
<!-- Generator: Adobe Illustrator 23.0.2, SVG Export Plug-In . SVG Version: 6.00 Build 0)  -->
<svg version="1.1" id="Laag_1" xmlns="http://www.w3.org/2000/svg" xmlns:xlink="http://www.w3.org/1999/xlink" x="0px" y="0px"
	 viewBox="0 0 162.74 29.56" style="enable-background:new 0 0 162.74 29.56;" xml:space="preserve">
<style type="text/css">
	.st0{fill-rule:evenodd;clip-rule:evenodd;fill:#005CBC;}
	.st1{fill:#F77000;}
	.st2{fill:#005CBC;}
</style>
<g id="OPt-2">
	<g id="prog2_pro3_Mobile-Portrait_opt2-Copy-2" transform="translate(-10.000000, -15.000000)">
		<g id="nav">
			<g id="Group-6">
				<g id="ic_home_9_" transform="translate(14.000000, 17.000000)">
					<g id="Group_9_" transform="translate(9.600000, 12.000000) scale(-1, 1) translate(-9.600000, -12.000000) ">
						<path id="Shape_9_" class="st0" d="M2.98,7.51L3.87,8.2l1.44,1.12c0.19-0.97,0.75-1.8,1.53-2.34L4.07,4.83l0.86-1.14
							c0.35-0.47,0.26-1.13-0.2-1.49L2.64,4.97C2.33,5.38,2.22,5.88,2.3,6.35C2.37,6.8,2.6,7.22,2.98,7.51L2.98,7.51z"/>
						<path class="st0" d="M11.77,17.2c-3.09-1.62-5.84-2.08-6.54-0.97c-0.57,0.91,0.4,2.65,2.3,4.42l-1.8,2.93H4.5
							c-0.56,0.02-1.02,0.48-1.02,1.06h1.59h2.11l0.65-1.06l1.04-1.7l0.41-0.66c-0.14-0.24-0.23-0.52-0.23-0.82
							c0-0.87,0.7-1.58,1.56-1.58c0.05,0,0.09,0,0.14,0.01L11.77,17.2L11.77,17.2z"/>
						<path class="st0" d="M20.41,7.1c-0.16-0.79-0.85-1.38-1.67-1.38c-0.24,0-0.46,0.05-0.66,0.14c-0.61,0.26-1.05,0.88-1.05,1.6
							v8.22c0,0.59-0.47,1.06-1.05,1.06c-0.42,0-0.78-0.25-0.95-0.62c-0.01-0.03-0.03-0.07-0.04-0.1l-0.97-2.44l1.89-6.45V7.12
							c0.02-0.07,0.04-0.14,0.06-0.22c0.69-2.53-0.55-5.17-2.86-6.25L8.67,2.22C8.12,2.41,7.83,3.01,8.02,3.56l1.13-0.41
							c0.44-0.16,0.93,0.07,1.09,0.52c0.16,0.45-0.07,0.95-0.52,1.11L8.56,5.2c0.2,0.54,0.8,0.82,1.34,0.62l1.23-0.46
							c0.09,0.5-0.19,1.01-0.68,1.18L8.1,7.41C7.11,7.84,6.41,8.82,6.36,9.97c0,0.04,0,0.08,0,0.13c0,0.03,0,0.05,0,0.08
							c0-0.01-0.01-0.02-0.01-0.02H2.68V8.73c0-0.4-0.49-0.75-0.8-0.93L1.63,7.67v3.51c0.01,0.99,0.81,1.79,1.79,1.79h4.14
							c0.37,0,0.72,0.04,1.06,0.13c-0.02,0-0.03-0.01-0.05-0.02c0.02,0.01,0.04,0.01,0.05,0.02c0.01,0,0.02,0.01,0.03,0.01
							c1.84,0.46,3.24,2.06,3.43,4.03c0,0.03,0.01,0.07,0.01,0.1c0.01,0.11,0.01,0.23,0.01,0.34c0,1.1-0.38,2.12-1.02,2.91
							c-0.05,0.06-0.1,0.12-0.14,0.17c-0.13,0.19-0.21,0.42-0.21,0.67c0,0.64,0.51,1.16,1.15,1.16c0.23,0,0.44-0.07,0.62-0.18
							l2.32-1.39c0.32,0.18,0.54,0.53,0.54,0.93c0,0.26-0.09,0.5-0.25,0.69l-0.96,1.06h-1.18l0,0h-0.06
							c-0.56,0.02-1.02,0.48-1.02,1.06h2.09l0,0h1.26c0-1,0.8-1.81,1.79-1.81v-3.09c-0.82-0.17-1.44-0.9-1.44-1.78
							c0-0.04,0-0.09,0.01-0.13c0.1,0.02,0.21,0.03,0.32,0.03c0.41,0,0.79-0.12,1.11-0.31c0.63-0.38,1.05-1.08,1.05-1.87V7.48
							c0-0.38,0.31-0.69,0.68-0.69c0.36,0,0.66,0.29,0.68,0.65c-0.47,0.33-0.78,0.87-0.78,1.49c0,1,0.8,1.81,1.79,1.81V7.47
							C20.45,7.34,20.44,7.22,20.41,7.1L20.41,7.1z"/>
					</g>
				</g>
			</g>
		</g>
	</g>
</g>
<g>
	<path class="st1" d="M35.54,18.22c-0.05,0.26-0.1,0.57-0.15,0.91c-0.05,0.35-0.1,0.73-0.14,1.14c-0.04,0-0.1,0-0.15,0
		s-0.12,0-0.19,0c-1.22,0-2.31-0.14-3.27-0.41s-1.77-0.68-2.44-1.23c-0.52-0.42-0.92-0.92-1.21-1.49c-0.28-0.57-0.43-1.22-0.43-1.96
		c0-0.69,0.14-1.31,0.42-1.86s0.68-1.04,1.19-1.46c0.66-0.56,1.48-0.98,2.46-1.27s2.03-0.43,3.14-0.43c0.06,0,0.12,0,0.18,0
		s0.11,0,0.17,0c0.02,0.21,0.06,0.5,0.1,0.88c0.04,0.38,0.1,0.77,0.17,1.18c-0.05,0-0.11,0-0.17,0s-0.11,0-0.17,0
		c-0.42,0-0.92,0.05-1.51,0.14c-0.59,0.09-1.1,0.23-1.54,0.42c-0.59,0.26-1.06,0.59-1.4,1s-0.51,0.88-0.51,1.41
		c0,0.54,0.16,1.01,0.49,1.42c0.32,0.41,0.79,0.74,1.4,1c0.45,0.21,0.98,0.36,1.58,0.45s1.11,0.14,1.54,0.14c0.06,0,0.13,0,0.21,0
		C35.39,18.22,35.47,18.22,35.54,18.22z"/>
	<path class="st1" d="M46.95,15.2c0,0.79-0.14,1.51-0.42,2.17s-0.68,1.23-1.2,1.71c-0.49,0.45-1.03,0.79-1.64,1.01
		s-1.25,0.33-1.94,0.33c-0.68,0-1.32-0.1-1.92-0.31s-1.13-0.52-1.6-0.94c-0.53-0.47-0.94-1.05-1.24-1.73s-0.45-1.43-0.45-2.25
		c0-0.76,0.12-1.46,0.37-2.08c0.25-0.63,0.63-1.19,1.13-1.69c0.46-0.46,1.01-0.82,1.64-1.06c0.63-0.25,1.31-0.37,2.05-0.37
		c0.72,0,1.39,0.11,2.01,0.34s1.16,0.56,1.63,1.01c0.53,0.5,0.92,1.08,1.18,1.74C46.82,13.74,46.95,14.45,46.95,15.2z M44.44,15.28
		c0-0.5-0.08-0.99-0.25-1.48s-0.42-0.89-0.77-1.21c-0.22-0.21-0.46-0.37-0.74-0.49s-0.59-0.18-0.94-0.18
		c-0.34,0-0.65,0.06-0.94,0.18c-0.29,0.12-0.55,0.3-0.79,0.53c-0.3,0.3-0.54,0.69-0.71,1.15c-0.17,0.46-0.25,0.93-0.25,1.42
		c0,0.54,0.08,1.03,0.25,1.47c0.17,0.45,0.42,0.82,0.74,1.13c0.22,0.21,0.47,0.37,0.76,0.49s0.6,0.18,0.94,0.18
		c0.33,0,0.64-0.06,0.93-0.18s0.55-0.29,0.78-0.51c0.3-0.28,0.54-0.65,0.72-1.1C44.35,16.26,44.44,15.78,44.44,15.28z"/>
	<path class="st1" d="M55.98,20.14c-0.19,0-0.67,0-1.45-0.01c-0.78,0-1.53-0.01-2.26-0.01c-0.58,0-1.15,0-1.7,0.01
		c-0.55,0-1.09,0.01-1.61,0.01c0-0.83,0.01-1.72,0.02-2.67c0.01-0.95,0.01-1.79,0.01-2.51c0-1.29,0-2.33-0.01-3.1
		c-0.01-0.77-0.01-1.3-0.02-1.59h2.45c0,0.59-0.01,1.26-0.01,1.99s-0.01,1.42-0.01,2.05c0,0.94,0,1.79,0.01,2.53
		c0,0.74,0.01,1.17,0.01,1.29c0.22,0,0.47,0,0.76,0c0.28,0,0.54,0,0.77,0c0.65,0,1.28,0,1.91-0.01c0.62,0,1.01-0.01,1.15-0.01v2.03
		H55.98z"/>
	<path class="st1" d="M70.14,19.82l-2.35,0.45l-1.24-6.65l-0.04-0.01c-0.13,0.31-0.43,1-0.88,2.07c-0.45,1.08-0.91,2.22-1.37,3.43
		h-1.84c-0.46-1.21-0.92-2.37-1.39-3.47s-0.76-1.78-0.86-2.02h-0.04c-0.05,0.24-0.21,1.04-0.49,2.41s-0.55,2.78-0.8,4.23l-2.28-0.44
		c0.52-2.3,0.96-4.38,1.33-6.23s0.59-2.93,0.65-3.21l2.37-0.25c0.07,0.19,0.34,0.89,0.82,2.1c0.48,1.21,1.03,2.59,1.67,4.14h0.06
		c0.51-1.23,1.04-2.56,1.61-3.97s0.88-2.17,0.92-2.28l2.41,0.21c0.02,0.17,0.2,1.17,0.53,3C69.25,15.18,69.66,17.34,70.14,19.82z"/>
	<path class="st1" d="M81.07,19.55l-2.41,0.81c-0.05-0.16-0.18-0.52-0.38-1.07c-0.2-0.55-0.44-1.17-0.72-1.87h-3.75
		c-0.29,0.7-0.53,1.33-0.73,1.88s-0.33,0.9-0.37,1.05l-2.26-0.77c0.13-0.29,0.65-1.47,1.54-3.51c0.89-2.05,1.74-4.01,2.55-5.88h2.5
		c0.85,1.98,1.71,3.99,2.6,6.05C80.53,18.29,81.01,19.4,81.07,19.55z M77,15.89c-0.19-0.5-0.39-1.05-0.61-1.66
		c-0.22-0.6-0.45-1.19-0.67-1.77h-0.03c-0.19,0.48-0.41,1.07-0.67,1.77c-0.26,0.7-0.47,1.26-0.63,1.66v0.01L77,15.89L77,15.89z"/>
	<path class="st1" d="M91.3,19.47l-2.25,0.88c-0.18-0.27-0.54-0.74-1.08-1.42c-0.54-0.68-1.35-1.74-2.44-3.18l0.04-0.15
		c0.16-0.03,0.38-0.12,0.64-0.25c0.27-0.13,0.49-0.29,0.66-0.46c0.18-0.18,0.32-0.37,0.41-0.58c0.09-0.2,0.14-0.46,0.14-0.77
		c0-0.3-0.08-0.57-0.23-0.8s-0.37-0.41-0.64-0.52c-0.22-0.09-0.45-0.15-0.69-0.17c-0.24-0.02-0.46-0.03-0.69-0.03
		c-0.13,0-0.23,0-0.3,0s-0.12,0-0.14,0c0,0.58-0.01,1.18-0.01,1.79s0,1.16,0,1.65c0,0.8,0,1.68,0.01,2.63s0.01,1.64,0.01,2.06H82.3
		c0-0.39,0.01-0.96,0.02-1.71s0.01-1.87,0.01-3.34c0-0.39,0-0.96,0-1.69s-0.01-1.77-0.03-3.13c0.14,0,0.44,0,0.89-0.01
		s0.87-0.01,1.26-0.01c0.73,0,1.37,0.02,1.91,0.07c0.54,0.04,1.05,0.15,1.52,0.31c0.68,0.23,1.19,0.56,1.52,1s0.5,0.94,0.5,1.49
		c0,0.63-0.17,1.17-0.52,1.61c-0.35,0.45-0.71,0.78-1.07,1.01v0.04c0.51,0.64,1.05,1.3,1.63,1.96C90.52,18.4,90.97,18.97,91.3,19.47
		z"/>
	<path class="st2" d="M102.25,19.76l-1.1,0.57c-0.02-0.05-0.17-0.4-0.45-1.05s-0.65-1.48-1.12-2.5H95.4
		c-0.5,1.1-0.88,1.94-1.15,2.55c-0.27,0.6-0.42,0.94-0.45,1.01l-0.94-0.51c0.12-0.24,0.63-1.32,1.51-3.23s1.81-3.92,2.76-6.02h0.92
		c0.94,2.11,1.86,4.15,2.77,6.12S102.21,19.68,102.25,19.76z M99.18,15.87c-0.25-0.57-0.51-1.17-0.79-1.8
		c-0.28-0.63-0.57-1.28-0.87-1.96l-0.03,0.01c-0.24,0.52-0.52,1.15-0.86,1.91c-0.33,0.75-0.61,1.37-0.83,1.85v0.01L99.18,15.87
		L99.18,15.87z"/>
	<path class="st2" d="M110.23,19.27c0,0.04-0.02,0.16-0.04,0.36c-0.02,0.2-0.04,0.41-0.06,0.64c-0.04,0-0.08,0-0.12,0
		s-0.09,0-0.12,0c-1.15,0-2.17-0.14-3.06-0.43c-0.89-0.29-1.63-0.71-2.2-1.26c-0.4-0.38-0.72-0.84-0.95-1.37s-0.35-1.14-0.35-1.82
		c0-0.61,0.12-1.17,0.35-1.67s0.53-0.95,0.9-1.32c0.54-0.54,1.27-0.98,2.18-1.3s1.89-0.48,2.93-0.48c0.05,0,0.11,0,0.18,0
		c0.07,0,0.11,0,0.14,0c0,0.08,0.01,0.22,0.03,0.41c0.01,0.19,0.03,0.39,0.05,0.6c-0.05,0-0.09,0-0.12,0s-0.07,0-0.12,0
		c-0.59,0-1.2,0.06-1.83,0.19s-1.17,0.32-1.63,0.58c-0.59,0.34-1.05,0.77-1.37,1.3c-0.32,0.53-0.48,1.1-0.48,1.71
		c0,0.63,0.14,1.21,0.43,1.73c0.29,0.52,0.74,0.96,1.36,1.31c0.51,0.29,1.08,0.5,1.71,0.63s1.25,0.2,1.87,0.2c0.03,0,0.07,0,0.13,0
		S110.16,19.27,110.23,19.27z"/>
	<path class="st2" d="M120.16,19.76l-1.1,0.57c-0.02-0.05-0.17-0.4-0.45-1.05s-0.65-1.48-1.12-2.5h-4.18
		c-0.5,1.1-0.88,1.94-1.15,2.55c-0.27,0.6-0.42,0.94-0.45,1.01l-0.94-0.51c0.12-0.24,0.63-1.32,1.51-3.23s1.81-3.92,2.76-6.02h0.92
		c0.94,2.11,1.86,4.15,2.77,6.12S120.12,19.68,120.16,19.76z M117.1,15.87c-0.25-0.57-0.51-1.17-0.79-1.8
		c-0.28-0.63-0.57-1.28-0.87-1.96l-0.03,0.01c-0.24,0.52-0.52,1.15-0.86,1.91c-0.33,0.75-0.61,1.37-0.83,1.85v0.01L117.1,15.87
		L117.1,15.87z"/>
	<path class="st2" d="M129.79,15.47c0,0.83-0.2,1.55-0.61,2.18c-0.41,0.63-0.93,1.13-1.58,1.51c-0.56,0.33-1.19,0.59-1.88,0.76
		s-1.47,0.26-2.34,0.26c-0.33,0-0.65,0-0.96-0.01c-0.31-0.01-0.49-0.01-0.52-0.01c0-0.02,0.01-0.57,0.02-1.63s0.02-2.06,0.02-3.01
		c0-0.5,0-1.15,0-1.94s-0.01-1.75-0.03-2.88c0.05,0,0.26,0,0.64-0.01s0.59-0.01,0.62-0.01c0.97,0,1.84,0.09,2.59,0.26
		s1.43,0.45,2.02,0.83c0.69,0.44,1.2,0.96,1.53,1.58C129.62,13.96,129.79,14.66,129.79,15.47z M128.59,15.46
		c0-0.61-0.13-1.17-0.39-1.66c-0.26-0.5-0.68-0.93-1.25-1.28c-0.53-0.33-1.12-0.57-1.76-0.7c-0.65-0.13-1.23-0.2-1.76-0.2
		c-0.07,0-0.14,0-0.22,0s-0.13,0-0.15,0c-0.01,0.74-0.02,1.36-0.02,1.85s0,0.88,0,1.17c0,0.21,0,0.69,0,1.45s0.01,1.81,0.01,3.16
		c0.07,0,0.13,0,0.18,0c0.05,0,0.11,0,0.18,0c0.61,0,1.22-0.07,1.84-0.22c0.61-0.14,1.13-0.34,1.56-0.6
		c0.54-0.32,0.97-0.73,1.29-1.22S128.59,16.14,128.59,15.46z"/>
	<path class="st2" d="M138.44,20.12c-0.04,0-0.35,0-0.94-0.01c-0.58,0-1.3-0.01-2.16-0.01c-0.6,0-1.14,0-1.64,0.01
		c-0.5,0-0.92,0.01-1.26,0.01c0.01-0.27,0.02-0.86,0.02-1.77c0.01-0.91,0.01-1.85,0.01-2.81c0-0.53,0-1.23-0.01-2.11
		c0-0.87-0.01-1.78-0.03-2.71c0.33,0,0.75,0,1.25,0.01c0.5,0,1.02,0.01,1.55,0.01c0.9,0,1.63,0,2.19-0.01
		c0.56,0,0.87-0.01,0.92-0.01v0.98c-0.05,0-0.34,0-0.88-0.01s-1.22-0.01-2.03-0.01c-0.35,0-0.7,0-1.04,0s-0.61,0-0.8,0
		c0,0.53,0,1.06-0.01,1.59s-0.01,1.03-0.01,1.5c0.21,0,0.46,0,0.75,0s0.55,0,0.77,0c0.83,0,1.57,0,2.22-0.01s1-0.01,1.04-0.01v0.97
		c-0.04,0-0.43,0-1.16-0.01c-0.74-0.01-1.41-0.01-2.02-0.01c-0.23,0-0.5,0-0.81,0s-0.57,0-0.79,0c0,0.89,0,1.59,0.01,2.12
		c0,0.52,0.01,0.96,0.01,1.31c0.28,0,0.61,0.01,1.01,0.01c0.4,0,0.82,0,1.28,0c0.7,0,1.29,0,1.77-0.01c0.48,0,0.74-0.01,0.8-0.01
		L138.44,20.12L138.44,20.12z"/>
	<path class="st2" d="M152.56,20l-1.15,0.23l-1.46-7.91l-0.01-0.01c-0.18,0.38-0.59,1.27-1.22,2.65c-0.63,1.39-1.24,2.78-1.84,4.18
		h-0.97c-0.56-1.29-1.18-2.69-1.85-4.19s-1.07-2.38-1.19-2.63h-0.01c-0.03,0.12-0.22,1.02-0.57,2.7c-0.35,1.68-0.69,3.41-1.01,5.2
		l-1.08-0.2c0.47-2.03,0.91-4.03,1.32-6.02s0.63-3.07,0.67-3.24l1.12-0.16c0.05,0.11,0.38,0.86,1,2.27s1.35,3.03,2.18,4.86h0.04
		c0.64-1.44,1.32-2.97,2.03-4.6s1.09-2.47,1.11-2.53l1.06,0.08c0.01,0.1,0.21,1.13,0.59,3.09C151.69,15.72,152.11,17.8,152.56,20z"
		/>
	<path class="st2" d="M161.49,11.15c-0.04,0.05-0.5,0.63-1.4,1.76s-1.61,2.03-2.16,2.72c-0.01,0.85-0.01,1.74,0,2.68
		s0.02,1.54,0.02,1.83h-1.16c0.01-0.28,0.02-0.9,0.03-1.85s0.01-1.81,0.01-2.57c-0.57-0.76-1.28-1.67-2.13-2.75s-1.3-1.65-1.37-1.73
		l0.93-0.71c0.06,0.08,0.43,0.57,1.11,1.48s1.36,1.81,2.05,2.7h0.01c0.66-0.85,1.36-1.75,2.09-2.69s1.11-1.44,1.15-1.49
		L161.49,11.15z"/>
</g>
</svg>
